<svg width="4848" height="3255" viewBox="0 0 4848 3255" fill="none" xmlns="http://www.w3.org/2000/svg">
<path d="M599.346 2167.27H494.59L436.187 2006.9H179.397L120.993 2167.27H19.0186L249.852 1555.43H368.513L599.346 2167.27ZM207.208 1926.24H408.376L308.255 1640.72L207.208 1926.24ZM1131.5 1703.75L924.773 1915.12L903.451 1929.95L757.906 2081.06L756.979 1967.96L1013.77 1703.75H1131.5ZM793.133 1495.17V2167.27H693.94V1495.17H793.133ZM936.825 1859.5L1142.63 2167.27H1027.67L862.661 1916.05L936.825 1859.5ZM1495.08 1869.69C1495.08 1838.79 1486.43 1815 1469.13 1798.31C1452.44 1781.01 1429.26 1772.36 1399.6 1772.36C1371.79 1772.36 1347.99 1778.85 1328.22 1791.82C1308.44 1804.8 1293.92 1825.82 1284.65 1854.86L1201.21 1819.63C1212.95 1781.94 1235.82 1751.65 1269.81 1728.78C1304.42 1705.92 1348.92 1694.48 1403.31 1694.48C1440.39 1694.48 1473.14 1700.66 1501.57 1713.03C1530 1724.77 1552.25 1742.69 1568.32 1766.79C1585.01 1790.9 1593.35 1821.8 1593.35 1859.5V2066.23C1593.35 2089.09 1604.78 2100.53 1627.65 2100.53C1638.78 2100.53 1649.59 2098.98 1660.1 2095.89L1654.53 2164.49C1640.32 2171.29 1622.4 2174.69 1600.77 2174.69C1580.99 2174.69 1563.07 2171.29 1547 2164.49C1531.55 2157.08 1519.19 2146.26 1509.92 2132.05C1501.26 2117.21 1496.94 2098.98 1496.94 2077.35V2070.86L1517.33 2069.94C1511.77 2094.04 1500.34 2114.12 1483.03 2130.19C1465.73 2145.64 1445.64 2157.39 1422.77 2165.42C1399.91 2172.84 1376.73 2176.55 1353.25 2176.55C1324.2 2176.55 1297.93 2171.91 1274.45 2162.64C1251.58 2153.37 1233.35 2139.46 1219.75 2120.92C1206.77 2101.76 1200.29 2078.28 1200.29 2050.47C1200.29 2015.86 1211.41 1987.43 1233.66 1965.18C1256.53 1942.93 1288.66 1927.79 1330.07 1919.76L1509.92 1884.53L1508.99 1954.06L1378.28 1980.94C1352.32 1985.88 1332.85 1992.99 1319.87 2002.26C1306.89 2011.53 1300.41 2025.13 1300.41 2043.05C1300.41 2060.36 1306.89 2074.26 1319.87 2084.77C1333.47 2094.66 1351.39 2099.6 1373.64 2099.6C1389.09 2099.6 1403.92 2097.75 1418.14 2094.04C1432.97 2090.33 1446.26 2084.46 1458 2076.42C1469.74 2067.77 1478.71 2056.96 1484.89 2043.98C1491.68 2030.38 1495.08 2014.31 1495.08 1995.77V1869.69ZM1932.96 2176.55C1894.64 2176.55 1859.72 2166.97 1828.2 2147.81C1797.3 2128.65 1772.89 2101.15 1754.97 2065.3C1737.04 2029.45 1728.08 1986.5 1728.08 1936.44C1728.08 1884.53 1737.66 1840.65 1756.82 1804.8C1775.98 1768.96 1801.63 1741.76 1833.76 1723.22C1865.9 1704.06 1901.13 1694.48 1939.45 1694.48C1979 1694.48 2012.37 1705.3 2039.57 1726.93C2066.76 1748.56 2084.99 1776.68 2094.26 1811.29L2083.14 1821.49V1495.17H2182.33V2167.27H2094.26L2086.85 2041.2L2099.83 2042.12C2095.5 2069.94 2085.3 2094.04 2069.23 2114.43C2053.16 2134.21 2033.08 2149.66 2008.98 2160.79C1985.49 2171.29 1960.15 2176.55 1932.96 2176.55ZM1954.28 2096.82C1980.86 2096.82 2003.72 2090.02 2022.88 2076.42C2042.04 2062.83 2056.87 2043.67 2067.38 2018.95C2077.89 1994.23 2083.14 1964.56 2083.14 1929.95C2083.14 1897.82 2077.89 1870.31 2067.38 1847.45C2056.87 1823.96 2042.04 1806.04 2022.88 1793.68C2004.34 1781.32 1982.71 1775.14 1957.99 1775.14C1916.58 1775.14 1884.44 1789.35 1861.58 1817.78C1838.71 1846.21 1827.28 1885.45 1827.28 1935.51C1827.28 1985.58 1838.4 2025.13 1860.65 2054.18C1882.9 2082.61 1914.11 2096.82 1954.28 2096.82ZM2540.13 2176.55C2493.77 2176.55 2452.98 2166.97 2417.76 2147.81C2382.53 2128.65 2355.03 2101.15 2335.25 2065.3C2316.09 2028.84 2306.51 1985.58 2306.51 1935.51C2306.51 1885.45 2316.09 1842.5 2335.25 1806.66C2355.03 1770.19 2382.22 1742.38 2416.83 1723.22C2451.44 1704.06 2490.68 1694.48 2534.56 1694.48C2579.68 1694.48 2618 1703.75 2649.52 1722.3C2681.04 1740.84 2705.14 1766.18 2721.83 1798.31C2738.51 1830.45 2746.86 1866.91 2746.86 1907.7C2746.86 1918.83 2746.55 1929.33 2745.93 1939.22C2745.31 1949.11 2744.38 1957.76 2743.15 1965.18H2370.48V1889.16H2699.58L2650.44 1904C2650.44 1861.97 2639.94 1829.83 2618.92 1807.58C2597.91 1784.72 2569.17 1773.28 2532.71 1773.28C2506.13 1773.28 2482.96 1779.46 2463.18 1791.82C2443.4 1804.18 2428.26 1822.72 2417.76 1847.45C2407.25 1871.55 2402 1901.21 2402 1936.44C2402 1971.05 2407.56 2000.41 2418.68 2024.51C2429.81 2048.61 2445.57 2066.85 2465.96 2079.21C2486.36 2091.57 2510.46 2097.75 2538.27 2097.75C2569.17 2097.75 2594.2 2091.88 2613.36 2080.13C2632.52 2068.39 2647.66 2052.01 2658.79 2031L2737.59 2068.08C2726.46 2090.33 2711.32 2109.8 2692.16 2126.49C2673.62 2142.55 2651.37 2154.91 2625.41 2163.57C2599.46 2172.22 2571.03 2176.55 2540.13 2176.55ZM2872.12 2167.27V1703.75H2960.19L2964.83 1781.63C2980.9 1751.96 3002.22 1730.02 3028.79 1715.81C3055.99 1701.59 3084.72 1694.48 3115.01 1694.48C3148.38 1694.48 3178.97 1702.21 3206.78 1717.66C3235.21 1732.49 3256.54 1755.05 3270.75 1785.33C3280.64 1764.94 3294.23 1747.94 3311.54 1734.35C3328.84 1720.75 3348 1710.86 3369.02 1704.68C3390.03 1697.88 3410.73 1694.48 3431.13 1694.48C3460.79 1694.48 3488.6 1700.66 3514.56 1713.03C3540.52 1725.39 3561.53 1744.24 3577.6 1769.57C3593.67 1794.91 3601.7 1827.36 3601.7 1866.91V2167.27H3502.51V1882.67C3502.51 1844.97 3493.55 1817.78 3475.63 1801.09C3457.7 1784.41 3434.84 1776.06 3407.02 1776.06C3385.39 1776.06 3365.31 1781.32 3346.77 1791.82C3328.84 1802.33 3314.32 1818.09 3303.2 1839.1C3292.07 1859.5 3286.51 1884.84 3286.51 1915.12V2167.27H3187.32V1882.67C3187.32 1844.97 3178.35 1817.78 3160.43 1801.09C3142.51 1784.41 3119.64 1776.06 3091.83 1776.06C3073.29 1776.06 3054.75 1781.01 3036.21 1790.9C3017.67 1800.78 3002.22 1816.24 2989.86 1837.25C2977.5 1858.26 2971.32 1886.07 2971.32 1920.68V2167.27H2872.12ZM3802.15 1625.88C3780.52 1625.88 3763.83 1620.63 3752.09 1610.12C3740.96 1599 3735.4 1583.55 3735.4 1563.77C3735.4 1543.99 3740.96 1528.85 3752.09 1518.35C3763.83 1507.84 3780.52 1502.59 3802.15 1502.59C3823.16 1502.59 3839.23 1507.84 3850.35 1518.35C3862.1 1528.85 3867.97 1543.99 3867.97 1563.77C3867.97 1583.55 3862.1 1599 3850.35 1610.12C3839.23 1620.63 3823.16 1625.88 3802.15 1625.88ZM3851.28 1703.75V2167.27H3752.09V1703.75H3851.28ZM4210.43 2176.55C4164.08 2176.55 4123.29 2166.97 4088.06 2147.81C4052.83 2128.65 4025.33 2101.15 4005.55 2065.3C3986.39 2028.84 3976.81 1985.58 3976.81 1935.51C3976.81 1885.45 3986.39 1842.5 4005.55 1806.66C4025.33 1770.19 4052.52 1742.38 4087.13 1723.22C4121.74 1704.06 4160.99 1694.48 4204.87 1694.48C4249.98 1694.48 4288.3 1703.75 4319.82 1722.3C4351.34 1740.84 4375.44 1766.18 4392.13 1798.31C4408.81 1830.45 4417.16 1866.91 4417.16 1907.7C4417.16 1918.83 4416.85 1929.33 4416.23 1939.22C4415.61 1949.11 4414.69 1957.76 4413.45 1965.18H4040.78V1889.16H4369.88L4320.75 1904C4320.75 1861.97 4310.24 1829.83 4289.23 1807.58C4268.21 1784.72 4239.48 1773.28 4203.01 1773.28C4176.44 1773.28 4153.26 1779.46 4133.48 1791.82C4113.71 1804.18 4098.57 1822.72 4088.06 1847.45C4077.55 1871.55 4072.3 1901.21 4072.3 1936.44C4072.3 1971.05 4077.86 2000.41 4088.99 2024.51C4100.11 2048.61 4115.87 2066.85 4136.26 2079.21C4156.66 2091.57 4180.76 2097.75 4208.57 2097.75C4239.48 2097.75 4264.51 2091.88 4283.66 2080.13C4302.82 2068.39 4317.96 2052.01 4329.09 2031L4407.89 2068.08C4396.76 2090.33 4381.62 2109.8 4362.46 2126.49C4343.92 2142.55 4321.67 2154.91 4295.72 2163.57C4269.76 2172.22 4241.33 2176.55 4210.43 2176.55ZM4666.91 1567.48V2028.22C4666.91 2051.09 4672.78 2067.77 4684.52 2078.28C4696.88 2088.79 4713.26 2094.04 4733.66 2094.04C4750.34 2094.04 4764.87 2091.57 4777.23 2086.62C4789.59 2081.06 4801.02 2073.64 4811.53 2064.37L4833.78 2136.68C4819.56 2149.04 4801.95 2158.93 4780.93 2166.35C4760.54 2173.15 4737.67 2176.55 4712.33 2176.55C4685.76 2176.55 4661.35 2172.22 4639.1 2163.57C4616.85 2154.91 4599.54 2141.01 4587.18 2121.85C4574.82 2102.07 4568.33 2076.42 4567.72 2044.91V1595.29L4666.91 1567.48ZM4826.36 1703.75V1781.63H4478.72V1703.75H4826.36Z" fill="#EE7421"/>
<path d="M689.711 2407.98C745.951 2407.98 793.23 2419.1 831.548 2441.35C870.483 2463.6 900.149 2497.59 920.544 2543.33L881.608 2572.99C863.685 2529.73 838.346 2498.52 805.591 2479.36C773.453 2460.2 733.59 2450.62 686.002 2450.62C649.539 2450.62 618.637 2456.49 593.298 2468.24C567.959 2479.36 548.491 2494.5 534.895 2513.66C521.916 2532.2 515.427 2553.22 515.427 2576.7C515.427 2605.13 524.697 2628.62 543.238 2647.16C561.779 2665.7 595.77 2680.53 645.213 2691.65L765.728 2717.61C825.676 2730.59 867.702 2749.44 891.805 2774.16C916.526 2798.26 928.887 2829.47 928.887 2867.79C928.887 2901.16 918.999 2930.83 899.222 2956.79C880.063 2982.74 853.488 3002.83 819.496 3017.04C785.505 3031.26 745.642 3038.37 699.908 3038.37C656.028 3038.37 616.783 3032.5 582.174 3020.75C548.182 3008.39 519.444 2991.4 495.959 2969.77C472.474 2947.52 455.169 2920.94 444.045 2890.04L484.835 2858.52C493.487 2887.57 507.702 2912.6 527.478 2933.61C547.873 2954.01 572.903 2969.46 602.569 2979.96C632.234 2990.47 665.298 2995.72 701.762 2995.72C736.372 2995.72 767.273 2991.09 794.466 2981.82C821.659 2971.93 842.672 2957.71 857.505 2939.17C872.955 2920.63 880.681 2897.77 880.681 2870.57C880.681 2844.62 871.41 2822.68 852.87 2804.75C834.947 2786.83 802.809 2773.23 756.457 2763.96L630.38 2736.15C591.444 2727.5 559.925 2716.07 535.822 2701.85C511.719 2687.64 494.105 2670.64 482.981 2650.86C472.474 2630.47 467.221 2607.6 467.221 2582.26C467.221 2550.74 476.182 2522.01 494.105 2496.05C512.028 2469.47 537.676 2448.15 571.049 2432.08C604.423 2416.01 643.977 2407.98 689.711 2407.98ZM1057.94 3223.77V2565.58H1099.66L1103.37 2694.43L1096.88 2687.02C1104.91 2660.44 1117.27 2637.27 1133.96 2617.49C1151.26 2597.71 1172.28 2582.57 1197 2572.07C1221.72 2561.56 1248.6 2556.31 1277.65 2556.31C1317.2 2556.31 1352.74 2565.89 1384.26 2585.04C1415.78 2604.2 1440.81 2631.71 1459.35 2667.55C1477.89 2703.4 1487.16 2746.66 1487.16 2797.34C1487.16 2847.4 1477.89 2890.66 1459.35 2927.12C1440.81 2962.97 1415.47 2990.47 1383.33 3009.63C1351.81 3028.79 1315.97 3038.37 1275.8 3038.37C1233.15 3038.37 1196.07 3027.24 1164.55 3004.99C1133.03 2982.13 1111.09 2951.53 1098.73 2913.22L1104.29 2904.87V3223.77H1057.94ZM1270.23 2997.58C1322.77 2997.58 1364.17 2979.65 1394.46 2943.81C1425.36 2907.96 1440.81 2859.14 1440.81 2797.34C1440.81 2735.53 1425.67 2686.71 1395.38 2650.86C1365.1 2615.02 1324 2597.1 1272.09 2597.1C1239.33 2597.1 1210.28 2605.44 1184.95 2622.13C1160.22 2638.19 1140.45 2661.37 1125.61 2691.65C1111.4 2721.32 1104.29 2756.55 1104.29 2797.34C1104.29 2837.51 1111.4 2872.74 1125.61 2903.02C1139.83 2933.3 1159.3 2956.79 1184.02 2973.47C1209.36 2989.54 1238.1 2997.58 1270.23 2997.58ZM1904.72 2724.1C1904.72 2683.93 1893.9 2652.72 1872.27 2630.47C1850.64 2608.22 1819.74 2597.1 1779.57 2597.1C1744.34 2597.1 1714.06 2604.82 1688.72 2620.27C1663.38 2635.1 1644.53 2660.13 1632.17 2695.36L1594.16 2671.26C1607.76 2634.8 1630.32 2606.68 1661.84 2586.9C1693.97 2566.5 1733.53 2556.31 1780.5 2556.31C1814.49 2556.31 1844.15 2562.49 1869.49 2574.85C1895.45 2586.59 1915.54 2604.2 1929.75 2627.69C1943.96 2651.17 1951.07 2680.53 1951.07 2715.76V2947.52C1951.07 2980.27 1965.9 2996.65 1995.57 2996.65C2008.55 2996.65 2019.67 2994.49 2028.94 2990.16L2026.16 3027.24C2015.66 3032.8 2002.06 3035.59 1985.37 3035.59C1971.16 3035.59 1957.87 3032.8 1945.51 3027.24C1933.15 3021.68 1922.95 3012.41 1914.92 2999.43C1907.5 2986.45 1903.79 2968.84 1903.79 2946.59V2921.56L1916.77 2920.63C1911.21 2947.21 1898.85 2969.46 1879.69 2987.38C1861.15 3004.68 1839.52 3017.66 1814.8 3026.32C1790.08 3034.35 1765.35 3038.37 1740.63 3038.37C1711.59 3038.37 1685.63 3033.73 1662.76 3024.46C1639.9 3015.19 1621.97 3001.9 1608.99 2984.6C1596.02 2966.68 1589.53 2944.74 1589.53 2918.78C1589.53 2884.17 1600.96 2856.36 1623.83 2835.35C1647.31 2813.71 1680.07 2798.88 1722.09 2790.85L1913.99 2752.84V2791.77L1745.27 2825.15C1708.81 2832.56 1681.61 2843.38 1663.69 2857.59C1645.77 2871.81 1636.81 2891.28 1636.81 2916C1636.81 2941.34 1646.38 2961.42 1665.54 2976.26C1684.7 2990.47 1711.9 2997.58 1747.12 2997.58C1765.05 2997.58 1783.28 2995.1 1801.82 2990.16C1820.36 2985.22 1837.35 2977.49 1852.81 2966.98C1868.87 2955.86 1881.54 2942.26 1890.81 2926.19C1900.08 2909.51 1904.72 2889.42 1904.72 2865.94V2724.1ZM2508.19 2480.29L2519.32 2521.08C2518.7 2521.08 2518.08 2521.08 2517.46 2521.08C2516.85 2521.08 2515.92 2521.08 2514.68 2521.08C2484.4 2521.08 2460.92 2529.11 2444.23 2545.18C2428.16 2560.63 2420.13 2582.57 2420.13 2611L2390.46 2596.17C2390.46 2572.68 2395.4 2552.29 2405.29 2534.98C2415.18 2517.68 2428.78 2504.39 2446.08 2495.12C2463.39 2485.23 2482.85 2480.29 2504.49 2480.29C2505.72 2480.29 2506.34 2480.29 2506.34 2480.29C2506.96 2480.29 2507.58 2480.29 2508.19 2480.29ZM2361.72 2981.82C2407.46 2981.82 2443.3 2991.4 2469.26 3010.56C2495.22 3029.71 2508.19 3055.36 2508.19 3087.5C2508.19 3115.93 2498.61 3140.65 2479.46 3161.66C2460.92 3182.68 2435.27 3199.05 2402.51 3210.8C2369.76 3222.54 2332.37 3228.41 2290.34 3228.41C2220.5 3228.41 2167.04 3216.36 2129.96 3192.26C2092.88 3168.77 2074.34 3139.11 2074.34 3103.26C2074.34 3077.3 2083.61 3054.74 2102.15 3035.59C2121.31 3016.43 2149.12 3004.99 2185.58 3001.29L2181.88 3009.63C2162.1 3004.07 2144.49 2994.8 2129.03 2981.82C2114.2 2968.84 2106.79 2950.3 2106.79 2926.19C2106.79 2900.24 2116.37 2879.22 2135.52 2863.16C2155.3 2846.47 2181.26 2836.89 2213.4 2834.42L2262.53 2851.1H2243.06C2214.63 2852.96 2191.76 2860.07 2174.46 2872.43C2157.77 2884.17 2149.43 2899.62 2149.43 2918.78C2149.43 2939.79 2157.46 2955.55 2173.53 2966.06C2190.22 2976.56 2211.23 2981.82 2236.57 2981.82H2361.72ZM2290.34 3189.47C2326.8 3189.47 2358.01 3185.15 2383.97 3176.5C2409.93 3167.84 2429.7 3156.1 2443.3 3141.27C2457.52 3127.05 2464.62 3110.98 2464.62 3093.06C2464.62 3071.43 2455.04 3054.13 2435.88 3041.15C2417.34 3028.17 2388.91 3021.68 2350.6 3021.68H2218.96C2189.91 3021.68 2165.81 3028.48 2146.65 3042.07C2127.49 3055.67 2117.91 3073.9 2117.91 3096.77C2117.91 3124.58 2133.05 3146.83 2163.34 3163.52C2194.24 3180.82 2236.57 3189.47 2290.34 3189.47ZM2283.85 2556.31C2320.31 2556.31 2352.45 2562.8 2380.26 2575.77C2408.69 2588.13 2430.63 2605.75 2446.08 2628.62C2461.53 2650.86 2469.26 2677.13 2469.26 2707.41C2469.26 2737.08 2461.53 2763.65 2446.08 2787.14C2430.63 2810.01 2408.69 2827.93 2380.26 2840.91C2352.45 2853.27 2320.31 2859.45 2283.85 2859.45C2225.14 2859.45 2179.09 2845.54 2145.72 2817.73C2112.97 2789.3 2096.59 2752.53 2096.59 2707.41C2096.59 2677.13 2104.31 2650.86 2119.76 2628.62C2135.83 2605.75 2157.77 2588.13 2185.58 2575.77C2214.01 2562.8 2246.77 2556.31 2283.85 2556.31ZM2283.85 2594.31C2243.06 2594.31 2209.69 2604.82 2183.73 2625.83C2157.77 2646.23 2144.79 2673.42 2144.79 2707.41C2144.79 2741.4 2157.77 2768.91 2183.73 2789.92C2209.69 2810.93 2243.06 2821.44 2283.85 2821.44C2324.64 2821.44 2357.7 2810.93 2383.04 2789.92C2409 2768.91 2421.98 2741.4 2421.98 2707.41C2421.98 2673.42 2409 2646.23 2383.04 2625.83C2357.7 2604.82 2324.64 2594.31 2283.85 2594.31ZM2601.5 3029.1V2352.36H2647.85V2660.13C2661.45 2627.38 2683.39 2602.04 2713.67 2584.12C2743.95 2565.58 2778.87 2556.31 2818.43 2556.31C2853.04 2556.31 2883.63 2562.8 2910.2 2575.77C2936.78 2588.13 2957.48 2607.29 2972.32 2633.25C2987.77 2658.59 2995.49 2690.11 2995.49 2727.81V3029.1H2949.14V2742.64C2949.14 2692.58 2936.47 2655.81 2911.13 2632.32C2886.41 2608.22 2853.96 2596.17 2813.79 2596.17C2784.74 2596.17 2757.55 2602.97 2732.21 2616.56C2707.49 2630.16 2687.1 2649.63 2671.03 2674.97C2655.58 2700.31 2647.85 2731.21 2647.85 2767.67V3029.1H2601.5ZM3344.67 3038.37C3302.02 3038.37 3264.01 3028.79 3230.64 3009.63C3197.27 2990.47 3171 2962.97 3151.84 2927.12C3133.3 2890.66 3124.03 2847.4 3124.03 2797.34C3124.03 2747.28 3133.3 2704.32 3151.84 2668.48C3171 2632.01 3196.65 2604.2 3228.79 2585.04C3260.92 2565.89 3297.7 2556.31 3339.1 2556.31C3381.13 2556.31 3416.98 2565.58 3446.64 2584.12C3476.31 2602.66 3499.17 2628.62 3515.24 2661.99C3531.31 2694.74 3539.35 2732.75 3539.35 2776.01C3539.35 2781.58 3539.04 2787.14 3538.42 2792.7C3538.42 2797.65 3538.11 2802.28 3537.49 2806.61H3152.77V2764.89H3517.1L3493.92 2771.38C3493.3 2718.23 3479.09 2675.89 3451.28 2644.37C3424.08 2612.86 3386.38 2597.1 3338.18 2597.1C3304.8 2597.1 3275.45 2605.13 3250.11 2621.2C3224.77 2636.65 3204.99 2659.52 3190.78 2689.8C3176.56 2719.46 3169.46 2755.31 3169.46 2797.34C3169.46 2838.74 3176.56 2874.59 3190.78 2904.87C3205.61 2935.16 3226.01 2958.33 3251.96 2974.4C3278.54 2989.85 3309.13 2997.58 3343.74 2997.58C3379.59 2997.58 3410.18 2989.85 3435.52 2974.4C3461.47 2958.95 3481.56 2937.63 3495.77 2910.44L3532.86 2931.76C3521.73 2954.01 3506.9 2973.17 3488.36 2989.23C3469.82 3004.68 3448.5 3016.74 3424.39 3025.39C3400.29 3034.04 3373.71 3038.37 3344.67 3038.37ZM3746.67 3029.1V2604.51H3609.47V2565.58H4222.24V2604.51H4074.84V2919.71C4074.84 2937.01 4078.86 2950.92 4086.89 2961.42C4095.55 2971.31 4107.29 2978.42 4122.12 2982.74C4137.57 2986.45 4155.8 2988.31 4176.82 2988.31L4168.47 3029.1C4137.57 3029.1 4111.61 3026.01 4090.6 3019.83C4070.21 3013.65 4054.76 3003.14 4044.25 2988.31C4033.74 2972.86 4028.49 2952.46 4028.49 2927.12V2604.51H3793.02V3029.1H3746.67ZM4352.01 2475.65C4340.27 2475.65 4330.69 2472.25 4323.27 2465.46C4316.48 2458.04 4313.08 2448.46 4313.08 2436.72C4313.08 2424.98 4316.48 2415.7 4323.27 2408.91C4330.69 2401.49 4340.27 2397.78 4352.01 2397.78C4363.75 2397.78 4373.02 2401.49 4379.82 2408.91C4387.24 2415.7 4390.95 2424.98 4390.95 2436.72C4390.95 2448.46 4387.24 2458.04 4379.82 2465.46C4373.02 2472.25 4363.75 2475.65 4352.01 2475.65ZM4375.19 2565.58V3029.1H4328.84V2565.58H4375.19Z" fill="black"/>
<path d="M2037.32 37.4055H2261.92V1197.88L2037.32 956.113V37.4055Z" fill="black"/>
<path d="M2561.39 37.4055H2786V956.113L2561.39 1197.88V37.4055Z" fill="black"/>
<path d="M3253.93 0L3057.4 224.608L1606.81 224.608L1800.59 0L3253.93 0Z" fill="black"/>
</svg>
