<svg width="2172" height="221" viewBox="0 0 2172 221" fill="none" xmlns="http://www.w3.org/2000/svg">
<path d="M426.546 175H405.292L393.442 142.461H341.342L329.492 175H308.803L355.637 50.8621H379.712L426.546 175ZM346.984 126.097H387.8L367.486 68.1661L346.984 126.097ZM534.515 80.9561L492.572 123.84L488.246 126.85L458.716 157.508L458.528 134.561L510.628 80.9561H534.515ZM465.863 38.6364V175H445.738V38.6364H465.863ZM495.017 112.555L536.772 175H513.45L479.97 124.028L495.017 112.555ZM608.282 114.624C608.282 108.354 606.527 103.527 603.016 100.141C599.63 96.6301 594.928 94.8746 588.909 94.8746C583.267 94.8746 578.439 96.1912 574.427 98.8244C570.414 101.458 567.467 105.721 565.587 111.614L548.659 104.467C551.041 96.8182 555.681 90.674 562.577 86.0345C569.599 81.395 578.627 79.0752 589.662 79.0752C597.185 79.0752 603.831 80.3291 609.599 82.837C615.367 85.2194 619.881 88.8558 623.141 93.7461C626.527 98.6364 628.22 104.906 628.22 112.555V154.498C628.22 159.138 630.54 161.458 635.179 161.458C637.436 161.458 639.63 161.144 641.762 160.517L640.634 174.436C637.75 175.815 634.113 176.505 629.724 176.505C625.712 176.505 622.076 175.815 618.815 174.436C615.681 172.931 613.173 170.737 611.292 167.853C609.536 164.843 608.659 161.144 608.659 156.755V155.439L612.797 155.251C611.668 160.141 609.348 164.216 605.837 167.476C602.326 170.611 598.251 172.994 593.612 174.624C588.972 176.129 584.27 176.881 579.505 176.881C573.612 176.881 568.282 175.94 563.518 174.06C558.878 172.179 555.179 169.357 552.42 165.596C549.787 161.708 548.471 156.944 548.471 151.301C548.471 144.279 550.728 138.511 555.242 133.997C559.881 129.483 566.402 126.411 574.803 124.781L611.292 117.633L611.104 131.74L584.583 137.194C579.317 138.197 575.367 139.639 572.734 141.52C570.101 143.401 568.784 146.16 568.784 149.796C568.784 153.307 570.101 156.129 572.734 158.26C575.493 160.266 579.129 161.27 583.643 161.27C586.778 161.27 589.787 160.893 592.671 160.141C595.681 159.389 598.377 158.197 600.759 156.567C603.141 154.812 604.96 152.618 606.214 149.984C607.593 147.226 608.282 143.966 608.282 140.204V114.624ZM697.123 176.881C689.349 176.881 682.264 174.937 675.869 171.05C669.6 167.163 664.647 161.583 661.01 154.31C657.374 147.038 655.556 138.323 655.556 128.166C655.556 117.633 657.499 108.73 661.386 101.458C665.274 94.1849 670.477 88.6677 676.998 84.9059C683.518 81.0188 690.665 79.0752 698.44 79.0752C706.465 79.0752 713.236 81.2696 718.753 85.6583C724.27 90.047 727.969 95.7523 729.85 102.774L727.593 104.843V38.6364H747.719V175H729.85L728.346 149.42L730.979 149.608C730.101 155.251 728.032 160.141 724.772 164.279C721.512 168.292 717.437 171.426 712.546 173.683C707.781 175.815 702.64 176.881 697.123 176.881ZM701.449 160.705C706.841 160.705 711.48 159.326 715.368 156.567C719.255 153.809 722.264 149.922 724.396 144.906C726.527 139.89 727.593 133.871 727.593 126.85C727.593 120.329 726.527 114.749 724.396 110.11C722.264 105.345 719.255 101.708 715.368 99.2006C711.606 96.6928 707.217 95.4389 702.201 95.4389C693.8 95.4389 687.28 98.3229 682.64 104.091C678.001 109.859 675.681 117.821 675.681 127.978C675.681 138.135 677.938 146.16 682.452 152.053C686.966 157.821 693.299 160.705 701.449 160.705ZM820.312 176.881C810.907 176.881 802.632 174.937 795.484 171.05C788.337 167.163 782.757 161.583 778.744 154.31C774.857 146.912 772.914 138.135 772.914 127.978C772.914 117.821 774.857 109.107 778.744 101.834C782.757 94.4357 788.274 88.7931 795.296 84.9059C802.318 81.0188 810.28 79.0752 819.183 79.0752C828.337 79.0752 836.111 80.9561 842.506 84.7179C848.901 88.4796 853.791 93.6207 857.177 100.141C860.563 106.661 862.255 114.06 862.255 122.335C862.255 124.592 862.193 126.724 862.067 128.73C861.942 130.737 861.754 132.492 861.503 133.997H785.892V118.574H852.663L842.694 121.583C842.694 113.056 840.563 106.536 836.299 102.022C832.036 97.3824 826.205 95.0627 818.807 95.0627C813.415 95.0627 808.713 96.3166 804.701 98.8244C800.688 101.332 797.616 105.094 795.484 110.11C793.353 115 792.287 121.019 792.287 128.166C792.287 135.188 793.415 141.144 795.672 146.034C797.929 150.925 801.127 154.624 805.265 157.132C809.403 159.639 814.293 160.893 819.936 160.893C826.205 160.893 831.284 159.702 835.171 157.32C839.058 154.937 842.13 151.614 844.387 147.351L860.375 154.875C858.117 159.389 855.045 163.339 851.158 166.724C847.396 169.984 842.882 172.492 837.616 174.248C832.349 176.003 826.581 176.881 820.312 176.881ZM887.671 175V80.9561H905.539L906.48 96.7555C909.74 90.7367 914.066 86.2853 919.458 83.4012C924.975 80.5172 930.806 79.0752 936.95 79.0752C943.721 79.0752 949.928 80.6426 955.57 83.7774C961.338 86.7868 965.664 91.3636 968.548 97.5078C970.555 93.3699 973.313 89.9216 976.824 87.163C980.335 84.4044 984.222 82.3981 988.486 81.1442C992.749 79.7649 996.95 79.0752 1001.09 79.0752C1007.11 79.0752 1012.75 80.3291 1018.02 82.837C1023.28 85.3448 1027.55 89.1693 1030.81 94.3103C1034.07 99.4514 1035.7 106.034 1035.7 114.06V175H1015.57V117.257C1015.57 109.608 1013.75 104.091 1010.12 100.705C1006.48 97.3197 1001.84 95.627 996.197 95.627C991.809 95.627 987.733 96.6928 983.972 98.8244C980.335 100.956 977.389 104.154 975.132 108.417C972.875 112.555 971.746 117.696 971.746 123.84V175H951.621V117.257C951.621 109.608 949.802 104.091 946.166 100.705C942.53 97.3197 937.89 95.627 932.248 95.627C928.486 95.627 924.724 96.6301 920.962 98.6364C917.201 100.643 914.066 103.777 911.558 108.041C909.05 112.304 907.796 117.947 907.796 124.969V175H887.671ZM1076.36 65.1567C1071.98 65.1567 1068.59 64.0909 1066.21 61.9592C1063.95 59.7022 1062.82 56.5674 1062.82 52.5548C1062.82 48.5423 1063.95 45.4702 1066.21 43.3385C1068.59 41.2069 1071.98 40.1411 1076.36 40.1411C1080.63 40.1411 1083.89 41.2069 1086.14 43.3385C1088.53 45.4702 1089.72 48.5423 1089.72 52.5548C1089.72 56.5674 1088.53 59.7022 1086.14 61.9592C1083.89 64.0909 1080.63 65.1567 1076.36 65.1567ZM1086.33 80.9561V175H1066.21V80.9561H1086.33ZM1159.2 176.881C1149.8 176.881 1141.52 174.937 1134.37 171.05C1127.23 167.163 1121.65 161.583 1117.63 154.31C1113.75 146.912 1111.8 138.135 1111.8 127.978C1111.8 117.821 1113.75 109.107 1117.63 101.834C1121.65 94.4357 1127.16 88.7931 1134.18 84.9059C1141.21 81.0188 1149.17 79.0752 1158.07 79.0752C1167.23 79.0752 1175 80.9561 1181.39 84.7179C1187.79 88.4796 1192.68 93.6207 1196.07 100.141C1199.45 106.661 1201.14 114.06 1201.14 122.335C1201.14 124.592 1201.08 126.724 1200.96 128.73C1200.83 130.737 1200.64 132.492 1200.39 133.997H1124.78V118.574H1191.55L1181.58 121.583C1181.58 113.056 1179.45 106.536 1175.19 102.022C1170.92 97.3824 1165.09 95.0627 1157.7 95.0627C1152.3 95.0627 1147.6 96.3166 1143.59 98.8244C1139.58 101.332 1136.5 105.094 1134.37 110.11C1132.24 115 1131.18 121.019 1131.18 128.166C1131.18 135.188 1132.3 141.144 1134.56 146.034C1136.82 150.925 1140.02 154.624 1144.15 157.132C1148.29 159.639 1153.18 160.893 1158.82 160.893C1165.09 160.893 1170.17 159.702 1174.06 157.32C1177.95 154.937 1181.02 151.614 1183.28 147.351L1199.26 154.875C1197.01 159.389 1193.93 163.339 1190.05 166.724C1186.29 169.984 1181.77 172.492 1176.5 174.248C1171.24 176.003 1165.47 176.881 1159.2 176.881ZM1251.82 53.3072V146.787C1251.82 151.426 1253.01 154.812 1255.39 156.944C1257.9 159.075 1261.22 160.141 1265.36 160.141C1268.74 160.141 1271.69 159.639 1274.2 158.636C1276.71 157.508 1279.03 156.003 1281.16 154.122L1285.67 168.793C1282.79 171.301 1279.21 173.307 1274.95 174.812C1270.81 176.191 1266.17 176.881 1261.03 176.881C1255.64 176.881 1250.69 176.003 1246.17 174.248C1241.66 172.492 1238.15 169.671 1235.64 165.784C1233.13 161.771 1231.82 156.567 1231.69 150.172V58.9498L1251.82 53.3072ZM1284.17 80.9561V96.7555H1213.63V80.9561H1284.17Z" fill="#EE7421"/>
<path d="M1407.56 48.9812C1418.97 48.9812 1428.56 51.2382 1436.33 55.7523C1444.23 60.2664 1450.25 67.163 1454.39 76.442L1446.49 82.4608C1442.85 73.6834 1437.71 67.3511 1431.07 63.4639C1424.55 59.5768 1416.46 57.6332 1406.8 57.6332C1399.41 57.6332 1393.14 58.8244 1388 61.2069C1382.85 63.4639 1378.91 66.536 1376.15 70.4232C1373.51 74.1849 1372.2 78.4483 1372.2 83.2132C1372.2 88.9812 1374.08 93.7461 1377.84 97.5078C1381.6 101.27 1388.5 104.279 1398.53 106.536L1422.98 111.802C1435.14 114.436 1443.67 118.26 1448.56 123.276C1453.58 128.166 1456.08 134.498 1456.08 142.273C1456.08 149.044 1454.08 155.063 1450.06 160.329C1446.18 165.596 1440.79 169.671 1433.89 172.555C1426.99 175.439 1418.91 176.881 1409.63 176.881C1400.72 176.881 1392.76 175.69 1385.74 173.307C1378.84 170.799 1373.01 167.351 1368.25 162.962C1363.48 158.448 1359.97 153.056 1357.71 146.787L1365.99 140.392C1367.75 146.285 1370.63 151.364 1374.64 155.627C1378.78 159.765 1383.86 162.9 1389.88 165.031C1395.9 167.163 1402.6 168.229 1410 168.229C1417.02 168.229 1423.29 167.288 1428.81 165.408C1434.33 163.401 1438.59 160.517 1441.6 156.755C1444.74 152.994 1446.3 148.354 1446.3 142.837C1446.3 137.571 1444.42 133.119 1440.66 129.483C1437.02 125.846 1430.5 123.088 1421.1 121.207L1395.52 115.564C1387.62 113.809 1381.22 111.489 1376.33 108.605C1371.44 105.721 1367.87 102.273 1365.61 98.2602C1363.48 94.1222 1362.42 89.4828 1362.42 84.3417C1362.42 77.9467 1364.23 72.116 1367.87 66.8495C1371.51 61.4577 1376.71 57.1316 1383.48 53.8715C1390.25 50.6113 1398.28 48.9812 1407.56 48.9812ZM1482.27 214.498V80.9561H1490.73L1491.48 107.1L1490.17 105.596C1491.8 100.204 1494.31 95.5016 1497.69 91.489C1501.2 87.4765 1505.47 84.4044 1510.48 82.2727C1515.5 80.1411 1520.95 79.0752 1526.84 79.0752C1534.87 79.0752 1542.08 81.0188 1548.47 84.9059C1554.87 88.7931 1559.95 94.373 1563.71 101.646C1567.47 108.918 1569.35 117.696 1569.35 127.978C1569.35 138.135 1567.47 146.912 1563.71 154.31C1559.95 161.583 1554.81 167.163 1548.29 171.05C1541.89 174.937 1534.62 176.881 1526.47 176.881C1517.82 176.881 1510.29 174.624 1503.9 170.11C1497.5 165.47 1493.05 159.263 1490.54 151.489L1491.67 149.796V214.498H1482.27ZM1525.34 168.605C1536 168.605 1544.4 164.969 1550.54 157.696C1556.81 150.423 1559.95 140.517 1559.95 127.978C1559.95 115.439 1556.88 105.533 1550.73 98.2602C1544.59 90.9875 1536.25 87.3511 1525.72 87.3511C1519.07 87.3511 1513.18 89.0439 1508.04 92.4295C1503.02 95.6896 1499.01 100.392 1496 106.536C1493.11 112.555 1491.67 119.702 1491.67 127.978C1491.67 136.129 1493.11 143.276 1496 149.42C1498.88 155.564 1502.83 160.329 1507.85 163.715C1512.99 166.975 1518.82 168.605 1525.34 168.605ZM1654.07 113.119C1654.07 104.969 1651.88 98.6364 1647.49 94.1223C1643.1 89.6081 1636.83 87.3511 1628.68 87.3511C1621.53 87.3511 1615.39 88.9185 1610.25 92.0533C1605.11 95.0627 1601.28 100.141 1598.77 107.288L1591.06 102.398C1593.82 95 1598.4 89.2947 1604.79 85.2821C1611.31 81.1442 1619.34 79.0752 1628.87 79.0752C1635.76 79.0752 1641.78 80.3291 1646.92 82.837C1652.19 85.2194 1656.27 88.7931 1659.15 93.558C1662.03 98.3229 1663.48 104.279 1663.48 111.426V158.448C1663.48 165.094 1666.48 168.417 1672.5 168.417C1675.14 168.417 1677.39 167.978 1679.27 167.1L1678.71 174.624C1676.58 175.752 1673.82 176.317 1670.43 176.317C1667.55 176.317 1664.85 175.752 1662.35 174.624C1659.84 173.495 1657.77 171.614 1656.14 168.981C1654.64 166.348 1653.88 162.774 1653.88 158.26V153.182L1656.52 152.994C1655.39 158.386 1652.88 162.9 1648.99 166.536C1645.23 170.047 1640.84 172.68 1635.83 174.436C1630.81 176.066 1625.8 176.881 1620.78 176.881C1614.89 176.881 1609.62 175.94 1604.98 174.06C1600.34 172.179 1596.7 169.483 1594.07 165.972C1591.44 162.335 1590.12 157.884 1590.12 152.618C1590.12 145.596 1592.44 139.953 1597.08 135.69C1601.85 131.301 1608.49 128.292 1617.02 126.661L1655.95 118.95V126.85L1621.72 133.621C1614.32 135.125 1608.8 137.32 1605.17 140.204C1601.53 143.088 1599.71 147.038 1599.71 152.053C1599.71 157.194 1601.66 161.27 1605.54 164.279C1609.43 167.163 1614.95 168.605 1622.1 168.605C1625.73 168.605 1629.43 168.103 1633.19 167.1C1636.96 166.097 1640.4 164.53 1643.54 162.398C1646.8 160.141 1649.37 157.382 1651.25 154.122C1653.13 150.737 1654.07 146.661 1654.07 141.897V113.119ZM1776.51 63.652L1778.77 71.9279C1778.64 71.9279 1778.52 71.9279 1778.39 71.9279C1778.27 71.9279 1778.08 71.9279 1777.83 71.9279C1771.68 71.9279 1766.92 73.558 1763.53 76.8182C1760.27 79.953 1758.64 84.4044 1758.64 90.1724L1752.62 87.163C1752.62 82.3981 1753.63 78.2602 1755.63 74.7492C1757.64 71.2382 1760.4 68.5423 1763.91 66.6614C1767.42 64.6552 1771.37 63.652 1775.76 63.652C1776.01 63.652 1776.13 63.652 1776.13 63.652C1776.26 63.652 1776.38 63.652 1776.51 63.652ZM1746.79 165.408C1756.07 165.408 1763.34 167.351 1768.61 171.238C1773.88 175.125 1776.51 180.329 1776.51 186.85C1776.51 192.618 1774.57 197.633 1770.68 201.897C1766.92 206.16 1761.71 209.483 1755.07 211.865C1748.42 214.248 1740.84 215.439 1732.31 215.439C1718.14 215.439 1707.29 212.994 1699.77 208.103C1692.25 203.339 1688.49 197.32 1688.49 190.047C1688.49 184.781 1690.37 180.204 1694.13 176.317C1698.02 172.429 1703.66 170.11 1711.06 169.357L1710.3 171.05C1706.29 169.922 1702.72 168.041 1699.58 165.408C1696.57 162.774 1695.07 159.013 1695.07 154.122C1695.07 148.856 1697.01 144.592 1700.9 141.332C1704.91 137.947 1710.18 136.003 1716.7 135.502L1726.67 138.887H1722.72C1716.95 139.263 1712.31 140.705 1708.8 143.213C1705.41 145.596 1703.72 148.73 1703.72 152.618C1703.72 156.881 1705.35 160.078 1708.61 162.21C1712 164.342 1716.26 165.408 1721.4 165.408H1746.79ZM1732.31 207.539C1739.71 207.539 1746.04 206.661 1751.31 204.906C1756.57 203.15 1760.59 200.768 1763.34 197.759C1766.23 194.875 1767.67 191.614 1767.67 187.978C1767.67 183.589 1765.73 180.078 1761.84 177.445C1758.08 174.812 1752.31 173.495 1744.54 173.495H1717.83C1711.93 173.495 1707.04 174.875 1703.16 177.633C1699.27 180.392 1697.33 184.091 1697.33 188.73C1697.33 194.373 1700.4 198.887 1706.54 202.273C1712.81 205.784 1721.4 207.539 1732.31 207.539ZM1730.99 79.0752C1738.39 79.0752 1744.91 80.3918 1750.55 83.0251C1756.32 85.5329 1760.77 89.1066 1763.91 93.7461C1767.04 98.2602 1768.61 103.589 1768.61 109.734C1768.61 115.752 1767.04 121.144 1763.91 125.909C1760.77 130.549 1756.32 134.185 1750.55 136.818C1744.91 139.326 1738.39 140.58 1730.99 140.58C1719.08 140.58 1709.74 137.759 1702.97 132.116C1696.32 126.348 1693 118.887 1693 109.734C1693 103.589 1694.57 98.2602 1697.7 93.7461C1700.96 89.1066 1705.41 85.5329 1711.06 83.0251C1716.82 80.3918 1723.47 79.0752 1730.99 79.0752ZM1730.99 86.7868C1722.72 86.7868 1715.95 88.9185 1710.68 93.1818C1705.41 97.3197 1702.78 102.837 1702.78 109.734C1702.78 116.63 1705.41 122.21 1710.68 126.473C1715.95 130.737 1722.72 132.868 1730.99 132.868C1739.27 132.868 1745.98 130.737 1751.12 126.473C1756.38 122.21 1759.02 116.63 1759.02 109.734C1759.02 102.837 1756.38 97.3197 1751.12 93.1818C1745.98 88.9185 1739.27 86.7868 1730.99 86.7868ZM1795.44 175V37.6959H1804.85V100.141C1807.6 93.4953 1812.06 88.3542 1818.2 84.7179C1824.34 80.9561 1831.43 79.0752 1839.45 79.0752C1846.48 79.0752 1852.68 80.3918 1858.07 83.0251C1863.47 85.5329 1867.67 89.4201 1870.68 94.6865C1873.81 99.8276 1875.38 106.223 1875.38 113.871V175H1865.97V116.881C1865.97 106.724 1863.4 99.2633 1858.26 94.4984C1853.25 89.6081 1846.66 87.163 1838.51 87.163C1832.62 87.163 1827.1 88.5423 1821.96 91.3009C1816.95 94.0596 1812.81 98.0094 1809.55 103.15C1806.41 108.292 1804.85 114.561 1804.85 121.959V175H1795.44ZM1946.22 176.881C1937.57 176.881 1929.86 174.937 1923.09 171.05C1916.32 167.163 1910.99 161.583 1907.1 154.31C1903.34 146.912 1901.46 138.135 1901.46 127.978C1901.46 117.821 1903.34 109.107 1907.1 101.834C1910.99 94.4357 1916.19 88.7931 1922.71 84.9059C1929.23 81.0188 1936.69 79.0752 1945.09 79.0752C1953.62 79.0752 1960.89 80.9561 1966.91 84.7179C1972.93 88.4796 1977.57 93.7461 1980.83 100.517C1984.09 107.163 1985.72 114.875 1985.72 123.652C1985.72 124.781 1985.66 125.909 1985.53 127.038C1985.53 128.041 1985.47 128.981 1985.35 129.859H1907.29V121.395H1981.21L1976.51 122.712C1976.38 111.928 1973.5 103.339 1967.85 96.9436C1962.34 90.5486 1954.69 87.3511 1944.91 87.3511C1938.14 87.3511 1932.18 88.9812 1927.04 92.2414C1921.9 95.3762 1917.88 100.016 1915 106.16C1912.12 112.179 1910.67 119.451 1910.67 127.978C1910.67 136.379 1912.12 143.652 1915 149.796C1918.01 155.94 1922.15 160.643 1927.41 163.903C1932.81 167.038 1939.01 168.605 1946.03 168.605C1953.31 168.605 1959.51 167.038 1964.66 163.903C1969.92 160.768 1974 156.442 1976.88 150.925L1984.4 155.251C1982.15 159.765 1979.14 163.652 1975.38 166.912C1971.61 170.047 1967.29 172.492 1962.4 174.248C1957.51 176.003 1952.12 176.881 1946.22 176.881ZM2027.79 175V88.8558H1999.95V80.9561H2124.27V88.8558H2094.37V152.806C2094.37 156.317 2095.18 159.138 2096.81 161.27C2098.57 163.276 2100.95 164.718 2103.96 165.596C2107.1 166.348 2110.79 166.724 2115.06 166.724L2113.37 175C2107.1 175 2101.83 174.373 2097.57 173.119C2093.43 171.865 2090.29 169.734 2088.16 166.724C2086.03 163.589 2084.96 159.451 2084.96 154.31V88.8558H2037.19V175H2027.79ZM2150.6 62.7116C2148.22 62.7116 2146.28 62.0219 2144.77 60.6426C2143.39 59.1379 2142.7 57.1943 2142.7 54.8119C2142.7 52.4295 2143.39 50.5486 2144.77 49.1693C2146.28 47.6646 2148.22 46.9122 2150.6 46.9122C2152.99 46.9122 2154.87 47.6646 2156.25 49.1693C2157.75 50.5486 2158.5 52.4295 2158.5 54.8119C2158.5 57.1943 2157.75 59.1379 2156.25 60.6426C2154.87 62.0219 2152.99 62.7116 2150.6 62.7116ZM2155.31 80.9561V175H2145.9V80.9561H2155.31Z" fill="black"/>
<path d="M66.5015 22.7778H101.197V202.038L66.5015 164.692V22.7778Z" fill="black"/>
<path d="M147.456 22.7778H182.152V164.692L147.456 202.038V22.7778Z" fill="black"/>
<path d="M254.434 17L224.075 51.6955L-0.000167847 51.6955L29.9332 17L254.434 17Z" fill="black"/>
</svg>
