<svg width="365" height="373" viewBox="0 0 365 373" fill="none" xmlns="http://www.w3.org/2000/svg">
<path d="M174.155 106.13C242.086 106.13 297.155 161.199 297.155 229.13C297.155 297.061 242.086 352.13 174.155 352.13C106.224 352.13 12.2103 284.779 51.1553 229.13C90.1002 173.482 106.224 106.13 174.155 106.13Z" fill="#F2F2F2"/>
<path d="M338.782 111.982C337.679 111.982 336.782 112.879 336.782 113.982V177.982C336.782 179.085 337.679 179.982 338.782 179.982C339.885 179.982 340.782 179.085 340.782 177.982V113.982C340.782 112.879 339.885 111.982 338.782 111.982Z" fill="#3F3D56"/>
<path d="M2.7818 63.9817C1.67877 63.9817 0.781799 64.8787 0.781799 65.9817V81.9817C0.781799 83.0847 1.67877 83.9817 2.7818 83.9817C3.88483 83.9817 4.7818 83.0847 4.7818 81.9817V65.9817C4.7818 64.8787 3.88483 63.9817 2.7818 63.9817Z" fill="#EE7421"/>
<path d="M2.7818 111.982C1.67877 111.982 0.781799 112.879 0.781799 113.982V144.982C0.781799 146.085 1.67877 146.982 2.7818 146.982C3.88483 146.982 4.7818 146.085 4.7818 144.982V113.982C4.7818 112.879 3.88483 111.982 2.7818 111.982Z" fill="#EE7421"/>
<path d="M2.7818 155.982C1.67877 155.982 0.781799 156.879 0.781799 157.982V188.982C0.781799 190.085 1.67877 190.982 2.7818 190.982C3.88483 190.982 4.7818 190.085 4.7818 188.982V157.982C4.7818 156.879 3.88483 155.982 2.7818 155.982Z" fill="#EE7421"/>
<path d="M182.155 0.981659C181.052 0.981659 180.155 1.87863 180.155 2.98166V33.9817C180.155 35.0847 181.052 35.9817 182.155 35.9817C183.258 35.9817 184.155 35.0847 184.155 33.9817V2.98166C184.155 1.87863 183.258 0.981659 182.155 0.981659Z" fill="#EE7421"/>
<path d="M252.455 322.294H95.019V324.294H252.455V322.294Z" fill="url(#paint0_linear_3_85)"/>
<path d="M352.343 207.466H268.251C263.713 207.466 260.021 203.774 260.021 199.236V116.17C260.021 111.632 263.713 107.94 268.251 107.94H352.343C356.881 107.94 360.573 111.632 360.573 116.17V199.236C360.573 203.774 356.881 207.466 352.343 207.466Z" fill="#E6E6E6"/>
<path d="M283.912 110.392C272.072 110.392 262.473 119.991 262.473 131.831V197.474C262.473 201.638 265.849 205.014 270.014 205.014H321.433C341.695 205.014 358.121 188.588 358.121 168.327V117.932C358.121 113.768 354.745 110.392 350.581 110.392L283.912 110.392Z" fill="white"/>
<path d="M332.819 134.532H287.599C286.736 134.532 286.034 133.83 286.034 132.967C286.034 132.104 286.736 131.403 287.599 131.403H332.819C333.682 131.403 334.384 132.104 334.384 132.967C334.384 133.83 333.682 134.532 332.819 134.532Z" fill="#E6E6E6"/>
<path d="M332.819 167.895H287.599C286.736 167.895 286.034 167.193 286.034 166.331C286.034 165.468 286.736 164.766 287.599 164.766H332.819C333.682 164.766 334.384 165.468 334.384 166.331C334.384 167.193 333.682 167.895 332.819 167.895Z" fill="#E6E6E6"/>
<path d="M351.182 151.224H269.236C268.373 151.224 267.671 150.522 267.671 149.66C267.671 148.797 268.373 148.095 269.236 148.095H351.182C352.045 148.095 352.747 148.797 352.747 149.66C352.747 150.522 352.045 151.224 351.182 151.224Z" fill="#E6E6E6"/>
<path d="M352.019 181.461H322.416C321.553 181.461 320.851 180.759 320.851 179.896C320.851 179.033 321.553 178.332 322.416 178.332H352.019C352.882 178.332 353.584 179.033 353.584 179.896C353.584 180.759 352.882 181.461 352.019 181.461Z" fill="#E6E6E6"/>
<path d="M175.711 372.97H108.937C105.333 372.97 102.402 370.039 102.402 366.435V300.475C102.402 296.872 105.333 293.94 108.937 293.94H175.711C179.315 293.94 182.246 296.872 182.246 300.475V366.435C182.246 370.039 179.315 372.97 175.711 372.97Z" fill="#E6E6E6"/>
<path d="M121.372 295.887C111.97 295.887 104.349 303.509 104.349 312.911V365.036C104.349 368.342 107.029 371.023 110.336 371.023H151.167C167.256 371.023 180.299 357.98 180.299 341.891V301.875C180.299 298.568 177.619 295.887 174.312 295.887L121.372 295.887Z" fill="white"/>
<path d="M160.208 315.055H124.3C123.615 315.055 123.057 314.498 123.057 313.813C123.057 313.128 123.615 312.571 124.3 312.571H160.208C160.893 312.571 161.45 313.128 161.45 313.813C161.45 314.498 160.893 315.055 160.208 315.055Z" fill="#E6E6E6"/>
<path d="M160.208 341.548H124.3C123.615 341.548 123.057 340.991 123.057 340.306C123.057 339.621 123.615 339.064 124.3 339.064H160.208C160.893 339.064 161.45 339.621 161.45 340.306C161.45 340.991 160.893 341.548 160.208 341.548Z" fill="#E6E6E6"/>
<path d="M174.79 328.311H109.718C109.033 328.311 108.476 327.753 108.476 327.068C108.476 326.383 109.033 325.826 109.718 325.826H174.79C175.475 325.826 176.032 326.383 176.032 327.068C176.032 327.753 175.475 328.311 174.79 328.311Z" fill="#E6E6E6"/>
<path d="M175.454 352.32H151.947C151.262 352.32 150.704 351.763 150.704 351.078C150.704 350.393 151.262 349.836 151.947 349.836H175.454C176.139 349.836 176.696 350.393 176.696 351.078C176.696 351.763 176.139 352.32 175.454 352.32Z" fill="#E6E6E6"/>
<path d="M129.04 160.626H79.6573C76.9923 160.626 74.8243 158.458 74.8243 155.793V107.012C74.8243 104.347 76.9923 102.179 79.6573 102.179H129.04C131.705 102.179 133.873 104.347 133.873 107.012V155.793C133.873 158.458 131.705 160.626 129.04 160.626Z" fill="#E6E6E6"/>
<path d="M88.8539 103.619C81.9009 103.619 76.2643 109.256 76.2643 116.209V154.758C76.2643 157.203 78.2468 159.186 80.6923 159.186H110.888C122.787 159.186 132.433 149.54 132.433 137.641V108.047C132.433 105.602 130.451 103.619 128.005 103.619L88.8539 103.619Z" fill="white"/>
<path d="M117.575 117.795H91.019C90.5124 117.795 90.1002 117.383 90.1002 116.876C90.1002 116.37 90.5124 115.958 91.019 115.958H117.575C118.081 115.958 118.493 116.37 118.493 116.876C118.493 117.383 118.081 117.795 117.575 117.795Z" fill="#E6E6E6"/>
<path d="M117.575 137.388H91.019C90.5124 137.388 90.1002 136.976 90.1002 136.469C90.1002 135.962 90.5124 135.55 91.019 135.55H117.575C118.081 135.55 118.493 135.962 118.493 136.469C118.493 136.976 118.081 137.388 117.575 137.388Z" fill="#E6E6E6"/>
<path d="M128.358 127.598H80.2353C79.7287 127.598 79.3165 127.186 79.3165 126.679C79.3165 126.172 79.7287 125.76 80.2353 125.76H128.358C128.865 125.76 129.277 126.172 129.277 126.679C129.277 127.186 128.865 127.598 128.358 127.598Z" fill="#E6E6E6"/>
<path d="M128.85 145.354H111.465C110.959 145.354 110.546 144.942 110.546 144.435C110.546 143.929 110.959 143.517 111.465 143.517H128.85C129.356 143.517 129.769 143.929 129.769 144.435C129.769 144.942 129.356 145.354 128.85 145.354Z" fill="#E6E6E6"/>
<path d="M273.155 222.13C278.678 222.13 283.155 217.653 283.155 212.13C283.155 206.608 278.678 202.13 273.155 202.13C267.632 202.13 263.155 206.608 263.155 212.13C263.155 217.653 267.632 222.13 273.155 222.13Z" fill="url(#paint1_linear_3_85)"/>
<path d="M120.376 220.839H51.1553V218.839H120.376C126.389 218.839 131.281 213.947 131.281 207.933V161.13H133.281V207.933C133.281 215.049 127.492 220.839 120.376 220.839Z" fill="url(#paint2_linear_3_85)"/>
<path d="M132.155 171.13C137.678 171.13 142.155 166.653 142.155 161.13C142.155 155.608 137.678 151.13 132.155 151.13C126.632 151.13 122.155 155.608 122.155 161.13C122.155 166.653 126.632 171.13 132.155 171.13Z" fill="url(#paint3_linear_3_85)"/>
<path d="M180.155 308C185.678 308 190.155 303.523 190.155 298C190.155 292.477 185.678 288 180.155 288C174.632 288 170.155 292.477 170.155 298C170.155 303.523 174.632 308 180.155 308Z" fill="url(#paint4_linear_3_85)"/>
<path d="M201.756 30.8528C208.64 30.8528 214.22 25.3904 214.22 18.6521C214.22 11.9139 208.64 6.45142 201.756 6.45142C194.873 6.45142 189.293 11.9139 189.293 18.6521C189.293 25.3904 194.873 30.8528 201.756 30.8528Z" fill="#F2F2F2"/>
<path d="M301.669 14.4782H234.584C232.283 14.4782 230.41 12.6057 230.41 10.3043C230.41 8.00283 232.283 6.13034 234.584 6.13034H301.669C303.971 6.13034 305.843 8.00283 305.843 10.3043C305.843 12.6057 303.971 14.4782 301.669 14.4782Z" fill="#F2F2F2"/>
<path d="M354.023 28.6053H234.584C232.283 28.6053 230.41 26.7328 230.41 24.4314C230.41 22.1299 232.283 20.2574 234.584 20.2574H354.023C356.324 20.2574 358.196 22.1299 358.196 24.4314C358.196 26.7328 356.324 28.6053 354.023 28.6053Z" fill="#F2F2F2"/>
<path d="M21.3591 82.1304C25.8139 82.1304 29.4252 78.5952 29.4252 74.2343C29.4252 69.8734 25.8139 66.3382 21.3591 66.3382C16.9044 66.3382 13.2931 69.8734 13.2931 74.2343C13.2931 78.5952 16.9044 82.1304 21.3591 82.1304Z" fill="#F2F2F2"/>
<path d="M86.0213 71.533H42.6049C41.1154 71.533 39.9036 70.3211 39.9036 68.8317C39.9036 67.3422 41.1154 66.1304 42.6049 66.1304H86.0213C87.5107 66.1304 88.7226 67.3422 88.7226 68.8317C88.7226 70.3211 87.5107 71.533 86.0213 71.533Z" fill="#F2F2F2"/>
<path d="M119.904 80.6759H42.6049C41.1154 80.6759 39.9036 79.464 39.9036 77.9746C39.9036 76.4851 41.1154 75.2733 42.6049 75.2733H119.904C121.393 75.2733 122.605 76.4851 122.605 77.9746C122.605 79.464 121.393 80.6759 119.904 80.6759Z" fill="#F2F2F2"/>
<path d="M263.359 363.13C267.814 363.13 271.425 359.595 271.425 355.234C271.425 350.873 267.814 347.338 263.359 347.338C258.904 347.338 255.293 350.873 255.293 355.234C255.293 359.595 258.904 363.13 263.359 363.13Z" fill="#F2F2F2"/>
<path d="M328.021 352.533H284.605C283.115 352.533 281.904 351.321 281.904 349.832C281.904 348.342 283.115 347.13 284.605 347.13H328.021C329.511 347.13 330.723 348.342 330.723 349.832C330.723 351.321 329.511 352.533 328.021 352.533Z" fill="#F2F2F2"/>
<path d="M361.904 361.676H284.605C283.115 361.676 281.904 360.464 281.904 358.974C281.904 357.485 283.115 356.273 284.605 356.273H361.904C363.393 356.273 364.605 357.485 364.605 358.974C364.605 360.464 363.393 361.676 361.904 361.676Z" fill="#F2F2F2"/>
<path d="M166.405 107.97H164.405V202.97H166.405V107.97Z" fill="#E6E6E6"/>
<path d="M165.405 208.97C168.719 208.97 171.405 206.284 171.405 202.97C171.405 199.657 168.719 196.97 165.405 196.97C162.091 196.97 159.405 199.657 159.405 202.97C159.405 206.284 162.091 208.97 165.405 208.97Z" fill="#E6E6E6"/>
<path d="M256.405 277.97C259.719 277.97 262.405 275.284 262.405 271.97C262.405 268.657 259.719 265.97 256.405 265.97C253.091 265.97 250.405 268.657 250.405 271.97C250.405 275.284 253.091 277.97 256.405 277.97Z" fill="#E6E6E6"/>
<path d="M94.4051 195.97C97.7188 195.97 100.405 193.284 100.405 189.97C100.405 186.657 97.7188 183.97 94.4051 183.97C91.0914 183.97 88.4051 186.657 88.4051 189.97C88.4051 193.284 91.0914 195.97 94.4051 195.97Z" fill="#E6E6E6"/>
<path d="M92.1877 189.98L59.3749 190.973L59.4354 192.973L92.2483 191.98L92.1877 189.98Z" fill="#E6E6E6"/>
<path d="M305.216 294.94H255.46V271.97H257.46V292.94H305.216V294.94Z" fill="#E6E6E6"/>
<path d="M91.9423 261.486C95.256 261.486 97.9423 258.799 97.9423 255.486C97.9423 252.172 95.256 249.486 91.9423 249.486C88.6286 249.486 85.9423 252.172 85.9423 255.486C85.9423 258.799 88.6286 261.486 91.9423 261.486Z" fill="#E6E6E6"/>
<path d="M140.161 278.455H90.4051V255.486H92.4051V276.455H140.161V278.455Z" fill="#E6E6E6"/>
<path d="M292.405 232.655H53.4227V234.655H292.405V232.655Z" fill="#E6E6E6"/>
<defs>
<linearGradient id="paint0_linear_3_85" x1="120.5" y1="328" x2="237" y2="324" gradientUnits="userSpaceOnUse">
<stop stop-color="#0047FF"/>
<stop offset="1" stop-color="#C521EE"/>
</linearGradient>
<linearGradient id="paint1_linear_3_85" x1="273.155" y1="202.13" x2="273.155" y2="222.13" gradientUnits="userSpaceOnUse">
<stop stop-color="#2136EE"/>
<stop offset="1" stop-color="#5311BE"/>
</linearGradient>
<linearGradient id="paint2_linear_3_85" x1="96.6553" y1="151.13" x2="96.6553" y2="220.839" gradientUnits="userSpaceOnUse">
<stop stop-color="#2173EE"/>
<stop offset="1" stop-color="#A021EE"/>
</linearGradient>
<linearGradient id="paint3_linear_3_85" x1="96.6553" y1="151.13" x2="96.6553" y2="220.839" gradientUnits="userSpaceOnUse">
<stop stop-color="#2173EE"/>
<stop offset="1" stop-color="#A021EE"/>
</linearGradient>
<linearGradient id="paint4_linear_3_85" x1="180.155" y1="288" x2="180.155" y2="308" gradientUnits="userSpaceOnUse">
<stop stop-color="#2167EE"/>
<stop offset="1" stop-color="#6321EE"/>
</linearGradient>
</defs>
</svg>
